<?xml version="1.0" encoding="utf-8"?>
<!-- Generator: Adobe Illustrator 25.0.0, SVG Export Plug-In . SVG Version: 6.00 Build 0)  -->
<svg version="1.1" id="Layer_1" xmlns="http://www.w3.org/2000/svg" xmlns:xlink="http://www.w3.org/1999/xlink" x="0px" y="0px"
	 viewBox="0 0 104 85.9" style="enable-background:new 0 0 104 85.9;" xml:space="preserve">
<style type="text/css">
	.st0{fill:#1E1E1E;}
</style>
<path class="st0" d="M18,84h-6.4c-5.5,0-10-4.5-10-10V11.4c0-5.5,4.5-10,10-10H28V74C28,79.5,23.5,84,18,84z"/>
<path class="st0" d="M60.2,50.2H29.3V27.3h30.9c5.5,0,10,4.5,10,10v2.9C70.2,45.7,65.7,50.2,60.2,50.2z"/>
<path class="st0" d="M92,84H44.3c-5.5,0-10-4.5-10-10v-2.9c0-5.5,4.5-10,10-10H102V74C101.9,79.5,97.5,84,92,84z"/>
<path class="st0" d="M101.9,59.5H75.5V11.4c0-5.5,4.5-10,10-10h6.4c5.5,0,10,4.5,10,10V59.5z"/>
<path class="st0" d="M60.2,24.3H29.3V1.4h30.9c5.5,0,10,4.5,10,10v2.9C70.2,19.8,65.7,24.3,60.2,24.3z"/>
</svg>
