<?xml version="1.0" encoding="utf-8"?>
<!-- Generator: Adobe Illustrator 25.0.0, SVG Export Plug-In . SVG Version: 6.00 Build 0)  -->
<svg version="1.1" id="Layer_1" xmlns="http://www.w3.org/2000/svg" xmlns:xlink="http://www.w3.org/1999/xlink" x="0px" y="0px"
	 viewBox="0 0 160 160" style="enable-background:new 0 0 160 160;" xml:space="preserve">
<style type="text/css">
	.st0{fill:#1E1E1E;}
</style>
<path class="st0" d="M46.2,121.3h-6.4c-5.5,0-10-4.5-10-10V48.7c0-5.5,4.5-10,10-10h16.4v72.6C56.2,116.8,51.7,121.3,46.2,121.3z"/>
<path class="st0" d="M88.4,87.5H57.5V64.6h30.9c5.5,0,10,4.5,10,10v2.9C98.4,83,93.9,87.5,88.4,87.5z"/>
<path class="st0" d="M120.2,121.3H72.5c-5.5,0-10-4.5-10-10v-2.9c0-5.5,4.5-10,10-10h57.7v12.9C130.1,116.8,125.7,121.3,120.2,121.3
	z"/>
<path class="st0" d="M130.1,96.8h-26.4V48.7c0-5.5,4.5-10,10-10h6.4c5.5,0,10,4.5,10,10V96.8z"/>
<path class="st0" d="M88.4,61.6H57.5V38.7h30.9c5.5,0,10,4.5,10,10v2.9C98.4,57.1,93.9,61.6,88.4,61.6z"/>
</svg>
